<?xml version="1.0" encoding="UTF-8" standalone="no"?><!DOCTYPE svg PUBLIC "-//W3C//DTD SVG 1.1//EN" "http://www.w3.org/Graphics/SVG/1.1/DTD/svg11.dtd"><svg width="100%" height="100%" viewBox="0 0 196 196" version="1.1" xmlns="http://www.w3.org/2000/svg" xmlns:xlink="http://www.w3.org/1999/xlink" xml:space="preserve" xmlns:serif="http://www.serif.com/" style="fill-rule:evenodd;clip-rule:evenodd;stroke-linejoin:round;stroke-miterlimit:2;"><g><path d="M194.848,97.916c-0,53.534 -43.397,96.931 -96.931,96.931c-53.533,-0 -96.932,-43.397 -96.932,-96.931c0,-53.533 43.399,-96.93 96.932,-96.93c53.534,-0 96.931,43.397 96.931,96.93" style="fill:#b9c4e1;fill-rule:nonzero;"/><path d="M135.624,82.04c-0,26.921 -16.881,48.744 -37.706,48.744c-20.825,0 -37.708,-21.823 -37.708,-48.744c-0,-26.921 16.883,-48.744 37.708,-48.744c20.825,-0 37.706,21.823 37.706,48.744" style="fill:#fff;fill-rule:nonzero;"/><path d="M97.917,134.405c-31.541,-0 -59.304,9.639 -75.517,24.251c17.767,22.061 44.984,36.191 75.517,36.191c30.533,0 57.751,-14.13 75.517,-36.191c-16.213,-14.612 -43.976,-24.251 -75.517,-24.251" style="fill:#fff;fill-rule:nonzero;"/><path d="M102.127,159.473l-8.419,0c-7.924,0 -14.406,-6.482 -14.406,-14.406l0,-32.744c0,-7.924 6.482,-14.406 14.406,-14.406l8.419,0c7.923,0 14.406,6.482 14.406,14.406l-0,32.744c-0,7.924 -6.483,14.406 -14.406,14.406" style="fill:#fff;fill-rule:nonzero;"/><path d="M65.417,84.301c2.195,6.322 1.324,12.367 -1.946,13.502c-3.27,1.136 -7.701,-3.068 -9.895,-9.39c-2.195,-6.321 -1.324,-12.366 1.946,-13.502c3.269,-1.134 7.699,3.07 9.895,9.39" style="fill:#fff;fill-rule:nonzero;"/><path d="M130.417,84.301c-2.195,6.322 -1.324,12.367 1.946,13.502c3.27,1.136 7.701,-3.068 9.895,-9.39c2.195,-6.321 1.324,-12.366 -1.946,-13.502c-3.269,-1.134 -7.699,3.07 -9.895,9.39" style="fill:#fff;fill-rule:nonzero;"/><path d="M64.917,84.097c-4.9,-8.913 -9.941,-18.369 -9.69,-28.536c0.252,-10.168 7.993,-20.9 18.157,-20.531c1.773,0.065 3.55,0.454 5.307,0.204c3.516,-0.5 6.12,-3.374 8.971,-5.49c6.431,-4.77 15.388,-5.901 22.804,-2.881c4.581,1.866 8.462,5.131 12.931,7.254c8.328,3.959 18.591,3.543 26.571,-1.074c-1.664,3.131 -4.483,5.633 -7.789,6.916c3.049,0.971 6.427,0.879 9.417,-0.262c-1.802,3.266 -4.783,5.863 -8.264,7.201c2.58,0.178 5.16,0.356 7.741,0.533c-2.202,3.119 -5.347,5.56 -8.913,6.92c2.022,0.066 4.044,0.132 6.066,0.196c-1.506,4.463 -5.411,8.033 -9.991,9.135c1.306,0.018 2.609,0.036 3.913,0.054c-4.273,6.164 -8.545,12.329 -12.818,18.494c-1.221,1.762 -2.489,3.57 -4.294,4.727c-1.498,0.959 -3.263,1.401 -5,1.791c-12.655,2.838 -25.754,3.69 -38.671,2.518c-4.419,-0.401 -9.04,-1.129 -12.551,-3.841c-3.511,-2.713 -5.392,-8.016 -2.975,-11.737" style="fill:#fff;fill-rule:nonzero;"/><path d="M73.609,143.615c0.278,-5.116 0.916,-10.211 1.907,-15.237c2.528,2.892 6.819,3.254 10.658,3.41c5.81,0.236 11.62,0.473 17.429,0.709c0.678,3.964 1.148,8.623 -1.716,11.447c-1.327,1.308 -3.161,1.958 -4.957,2.458c-3.917,1.088 -7.976,1.656 -12.041,1.682c-4.822,0.031 -10.569,-1.414 -12.112,-5.984c0.524,-0.429 1.046,-0.859 1.57,-1.289" style="fill:#fff;fill-rule:nonzero;"/><path d="M122.225,143.615c-0.278,-5.116 -0.916,-10.211 -1.905,-15.237c-2.529,2.892 -6.82,3.254 -10.66,3.41c-5.81,0.236 -11.62,0.473 -17.429,0.709c-0.678,3.964 -1.147,8.623 1.716,11.447c1.329,1.308 3.161,1.958 4.957,2.458c3.917,1.088 7.976,1.656 12.041,1.682c4.822,0.031 10.569,-1.414 12.112,-5.984c-0.523,-0.429 -1.046,-0.859 -1.57,-1.289" style="fill:#fff;fill-rule:nonzero;"/></g></svg>