<?xml version="1.0" encoding="UTF-8" standalone="no"?><!DOCTYPE svg PUBLIC "-//W3C//DTD SVG 1.1//EN" "http://www.w3.org/Graphics/SVG/1.1/DTD/svg11.dtd"><svg width="100%" height="100%" viewBox="0 0 3530 4412" version="1.1" xmlns="http://www.w3.org/2000/svg" xmlns:xlink="http://www.w3.org/1999/xlink" xml:space="preserve" xmlns:serif="http://www.serif.com/" style="fill-rule:evenodd;clip-rule:evenodd;stroke-linecap:round;stroke-linejoin:round;"><g><g><path d="M600,3162.5l0,-1720.83l391.667,-270.834l325,154.167l-0,1837.5" style="fill:url(#_Linear1);stroke:#000;stroke-width:8.33px;"/><path d="M1316.67,1325l-0,-541.667l683.333,-554.166l325,329.166l0,1045.83l337.5,-216.667l283.333,145.833l0,1629.17" style="fill:url(#_Linear2);stroke:#000;stroke-width:8.33px;"/><path d="M1891.67,1962.5l433.333,488.403l-4.167,715.764l-429.166,-4.211l-0,-1199.96Z" style="fill:#990f08;stroke:#000;stroke-width:3.33px;stroke-miterlimit:1.5;"/><path d="M1887.5,320.833l0,2841.67" style="fill:none;stroke:#000;stroke-width:8.33px;"/><path d="M991.667,1170.83l-0,1991.67" style="fill:none;stroke:#000;stroke-width:8.33px;"/><path d="M2325,1604.17l0,1558.33" style="fill:none;stroke:#000;stroke-width:8.33px;"/><path d="M2662.5,1387.5l0,1775" style="fill:none;stroke:#000;stroke-width:8.33px;"/><path d="M300,3162.5l2950,0l0,133.333l-2954.17,0l4.167,-133.333Z" style="fill:url(#_Linear3);stroke:#000;stroke-width:8.33px;"/><path d="M991.667,3162.5l-0,-1991.67l-391.667,270.834l0,1720.83l391.667,0Z" style="fill:url(#_Linear4);"/><path d="M1316.67,783.333l-0,2379.17l570.833,0l0,-2841.67l-570.833,462.5Z" style="fill:url(#_Linear5);"/><path d="M2325,1604.17l0,1558.33l337.5,0l0,-1775l-337.5,216.667Z" style="fill:url(#_Linear6);"/><path d="M2666.67,2833.33l279.166,324.836l-279.166,4.331l-0,-329.167Z" style="fill:#820604;stroke:#000;stroke-width:3.33px;stroke-miterlimit:1.5;"/></g></g><defs><linearGradient id="_Linear1" x1="0" y1="0" x2="1" y2="0" gradientUnits="userSpaceOnUse" gradientTransform="matrix(2700,-20.8333,20.8333,2700,612.5,2320.83)"><stop offset="0" style="stop-color:#ca2012;stop-opacity:1"/><stop offset="1" style="stop-color:#700000;stop-opacity:1"/></linearGradient><linearGradient id="_Linear2" x1="0" y1="0" x2="1" y2="0" gradientUnits="userSpaceOnUse" gradientTransform="matrix(2700,-20.8333,20.8333,2700,612.5,2320.83)"><stop offset="0" style="stop-color:#ca2012;stop-opacity:1"/><stop offset="1" style="stop-color:#700000;stop-opacity:1"/></linearGradient><linearGradient id="_Linear3" x1="0" y1="0" x2="1" y2="0" gradientUnits="userSpaceOnUse" gradientTransform="matrix(2700,-20.8333,20.8333,2700,612.5,2320.83)"><stop offset="0" style="stop-color:#ca2012;stop-opacity:1"/><stop offset="1" style="stop-color:#700000;stop-opacity:1"/></linearGradient><linearGradient id="_Linear4" x1="0" y1="0" x2="1" y2="0" gradientUnits="userSpaceOnUse" gradientTransform="matrix(2700,-20.8333,20.8333,2700,612.5,2320.83)"><stop offset="0" style="stop-color:#ca2012;stop-opacity:1"/><stop offset="1" style="stop-color:#700000;stop-opacity:1"/></linearGradient><linearGradient id="_Linear5" x1="0" y1="0" x2="1" y2="0" gradientUnits="userSpaceOnUse" gradientTransform="matrix(2700,-20.8333,20.8333,2700,612.5,2320.83)"><stop offset="0" style="stop-color:#ca2012;stop-opacity:1"/><stop offset="1" style="stop-color:#700000;stop-opacity:1"/></linearGradient><linearGradient id="_Linear6" x1="0" y1="0" x2="1" y2="0" gradientUnits="userSpaceOnUse" gradientTransform="matrix(2700,-20.8333,20.8333,2700,612.5,2320.83)"><stop offset="0" style="stop-color:#ca2012;stop-opacity:1"/><stop offset="1" style="stop-color:#700000;stop-opacity:1"/></linearGradient></defs></svg>