<?xml version="1.0" encoding="UTF-8" standalone="no"?>
<!DOCTYPE svg PUBLIC "-//W3C//DTD SVG 1.1//EN" "http://www.w3.org/Graphics/SVG/1.1/DTD/svg11.dtd">
<svg width="100%" height="100%" viewBox="0 0 30 30" version="1.1" xmlns="http://www.w3.org/2000/svg" xmlns:xlink="http://www.w3.org/1999/xlink" xml:space="preserve" xmlns:serif="http://www.serif.com/" style="fill-rule:evenodd;clip-rule:evenodd;stroke-linejoin:round;stroke-miterlimit:2;">
    <g transform="matrix(0.350486,0,0,0.350486,-2.48681,-2.53781)">
        <path d="M40.832,30.889C40.011,30.69 39.168,30.55 38.302,30.483C40.309,18.925 50.389,10.094 62.516,10.094C76.078,10.094 87.115,21.131 87.115,34.696C87.115,48.255 76.079,59.293 62.516,59.293C58.039,59.293 53.849,58.073 50.229,55.973C50.729,55.28 51.16,54.542 51.542,53.782C54.774,55.647 58.517,56.726 62.516,56.726C74.684,56.726 84.548,46.862 84.548,34.696C84.548,22.526 74.684,12.662 62.516,12.662C51.648,12.662 42.64,20.537 40.832,30.889ZM51.104,46.622C51.104,38.868 44.795,32.559 37.038,32.559C29.281,32.559 22.972,38.868 22.972,46.622C22.972,51.091 25.062,55.201 28.707,57.896L30.469,59.198L28.357,59.786C15.623,63.319 12.79,74.39 12.671,89.983L61.311,89.983C61.192,74.374 58.373,63.298 45.711,59.785L43.597,59.197L45.362,57.895C49.011,55.2 51.104,51.091 51.104,46.622ZM62.516,19.016C55.869,19.016 50.462,24.423 50.462,31.07C50.462,32.84 51.897,34.278 53.669,34.278C54.552,34.278 55.356,33.918 55.939,33.335C56.517,32.756 56.876,31.955 56.876,31.069C56.876,27.96 59.407,25.43 62.518,25.43C65.626,25.43 68.154,27.96 68.154,31.069C68.154,34.178 65.627,36.708 62.518,36.708C61.631,36.708 60.83,37.068 60.25,37.647C59.67,38.23 59.308,39.031 59.308,39.917C59.308,41.686 60.746,43.125 62.518,43.125C69.159,43.125 74.569,37.718 74.569,31.07C74.566,24.423 69.156,19.016 62.516,19.016ZM62.512,45.245C60.729,45.245 59.279,46.688 59.279,48.474C59.279,50.261 60.729,51.711 62.512,51.711C64.299,51.711 65.747,50.26 65.747,48.474C65.747,46.688 64.299,45.245 62.512,45.245Z" style="fill:url(#_Linear1);fill-rule:nonzero;"/>
    </g>
    <defs>
        <linearGradient id="_Linear1" x1="0" y1="0" x2="1" y2="0" gradientUnits="userSpaceOnUse" gradientTransform="matrix(74.444,-45.6509,45.6509,74.444,12.671,78.5703)"><stop offset="0" style="stop-color:rgb(202,32,18);stop-opacity:1"/><stop offset="1" style="stop-color:rgb(112,0,0);stop-opacity:1"/></linearGradient>
    </defs>
</svg>
