<?xml version="1.0" encoding="UTF-8" standalone="no"?>
<!DOCTYPE svg PUBLIC "-//W3C//DTD SVG 1.1//EN" "http://www.w3.org/Graphics/SVG/1.1/DTD/svg11.dtd">
<svg width="100%" height="100%" viewBox="0 0 107 98" version="1.1" xmlns="http://www.w3.org/2000/svg" xmlns:xlink="http://www.w3.org/1999/xlink" xml:space="preserve" xmlns:serif="http://www.serif.com/" style="fill-rule:evenodd;clip-rule:evenodd;stroke-linejoin:round;stroke-miterlimit:2;">
    <g transform="matrix(2.96836,0,0,2.96836,-145.38,-1226.68)">
        <path d="M61.953,426.367C60.744,425.108 60,423.399 60,421.518C60,417.654 63.137,414.518 67,414.518C70.863,414.518 74,417.654 74,421.518C74,423.399 73.256,425.108 72.047,426.367C75.009,428.103 77,431.321 77,435C77,440.519 72.519,445 67,445C61.481,445 57,440.519 57,435C57,431.321 58.991,428.103 61.953,426.367Z" style="fill:url(#_Linear1);"/>
    </g>
    <defs>
        <linearGradient id="_Linear1" x1="0" y1="0" x2="1" y2="0" gradientUnits="userSpaceOnUse" gradientTransform="matrix(10.6119,0.117071,-0.117071,10.6119,67,432)"><stop offset="0" style="stop-color:rgb(202,32,18);stop-opacity:1"/><stop offset="1" style="stop-color:rgb(112,0,0);stop-opacity:1"/></linearGradient>
    </defs>
</svg>
