<?xml version="1.0" encoding="UTF-8" standalone="no"?>
<!DOCTYPE svg PUBLIC "-//W3C//DTD SVG 1.1//EN" "http://www.w3.org/Graphics/SVG/1.1/DTD/svg11.dtd">
<svg width="100%" height="100%" viewBox="0 0 107 98" version="1.1" xmlns="http://www.w3.org/2000/svg" xmlns:xlink="http://www.w3.org/1999/xlink" xml:space="preserve" xmlns:serif="http://www.serif.com/" style="fill-rule:evenodd;clip-rule:evenodd;stroke-linejoin:round;stroke-miterlimit:2;">
    <g transform="matrix(1,0,0,1,0.486641,-0.000323011)">
        <g transform="matrix(1,0,0,1,3,-1)">
            <path d="M98.05,42.27L56.5,7.66C52.774,4.473 47.226,4.473 43.5,7.66L40.01,10.57C27.337,21.143 14.64,31.72 1.92,42.3C0.654,43.304 -0.06,44.855 0,46.47L0,52.53C0,54.92 0.71,55.59 3.13,55.53L11.7,55.53C13.08,55.53 13.33,55.79 13.34,57.18L13.34,87.8C13.34,92.12 11.94,94.74 16.28,94.73L36.98,94.73C37.372,94.731 37.764,94.698 38.15,94.63L38.15,72.25L61.86,72.25L61.86,94.63C62.226,94.694 62.598,94.724 62.97,94.72L79.97,94.72C80.094,94.727 84.218,94.731 84.342,94.731C87.82,94.731 86.682,91.869 86.682,88.391C86.682,88.261 86.678,88.13 86.67,88L86.67,57.29C86.67,55.82 86.9,55.57 88.35,55.57L97.46,55.57C97.573,55.587 97.686,55.596 97.8,55.596C99.024,55.596 100.03,54.589 100.03,53.366C100.03,53.243 100.02,53.121 100,53L100,46.27C100.012,44.706 99.289,43.224 98.05,42.27Z" style="fill:url(#_Linear1);fill-rule:nonzero;"/>
        </g>
        <g transform="matrix(1,0,0,1,3,-1)">
            <path d="M67.21,25C70.21,27.47 73.21,30 76.21,32.47L84,39L84,9.08C83.925,7.388 82.493,6.046 80.8,6.08C77.08,6.02 73.36,6.02 69.64,6.08C69.631,6.08 69.622,6.08 69.613,6.08C67.874,6.08 66.443,7.511 66.443,9.25C66.443,9.32 66.445,9.39 66.45,9.46C66.45,10.15 66.5,10.84 66.45,11.52C66.418,12.114 66.709,24.68 67.21,25Z" style="fill:url(#_Linear2);fill-rule:nonzero;"/>
        </g>
    </g>
    <defs>
        <linearGradient id="_Linear1" x1="0" y1="0" x2="1" y2="0" gradientUnits="userSpaceOnUse" gradientTransform="matrix(54,0,0,54,31.5134,51.0003)"><stop offset="0" style="stop-color:rgb(202,32,18);stop-opacity:1"/><stop offset="1" style="stop-color:rgb(112,0,0);stop-opacity:1"/></linearGradient>
        <linearGradient id="_Linear2" x1="0" y1="0" x2="1" y2="0" gradientUnits="userSpaceOnUse" gradientTransform="matrix(54,0,0,54,31.5134,51.0003)"><stop offset="0" style="stop-color:rgb(202,32,18);stop-opacity:1"/><stop offset="1" style="stop-color:rgb(112,0,0);stop-opacity:1"/></linearGradient>
    </defs>
</svg>
