<?xml version="1.0" encoding="UTF-8" standalone="no"?>
<!DOCTYPE svg PUBLIC "-//W3C//DTD SVG 1.1//EN" "http://www.w3.org/Graphics/SVG/1.1/DTD/svg11.dtd">
<svg width="100%" height="100%" viewBox="0 0 545 380" version="1.1" xmlns="http://www.w3.org/2000/svg" xmlns:xlink="http://www.w3.org/1999/xlink" xml:space="preserve" xmlns:serif="http://www.serif.com/" style="fill-rule:evenodd;clip-rule:evenodd;stroke-linejoin:round;stroke-miterlimit:1.41421;">
    <g transform="matrix(1,0,0,1,-77,-89)">
        <path d="M174.72,379.12L333.2,379.12C336.001,379.12 338.802,376.882 338.802,373.518L338.802,349.998C338.802,321.998 315.841,299.037 287.841,299.037L220.642,299.037C192.642,299.037 169.681,321.998 169.681,349.998L169.681,373.518C169.681,376.878 171.923,379.12 174.72,379.12L174.72,379.12Z" style="fill-rule:nonzero;fill:rgb(129, 3, 2);"/>
        <path d="M304.64,231.84C304.64,259.985 281.824,282.801 253.679,282.801C225.534,282.801 202.718,259.985 202.718,231.84C202.718,203.695 225.534,180.879 253.679,180.879C281.824,180.879 304.64,203.695 304.64,231.84" style="fill-rule:nonzero;fill:rgb(129, 3, 2);"/>
        <path d="M380.24,220.08L524.16,220.08C527.519,220.08 530.32,217.279 530.32,213.92L530.32,188.721C530.32,185.361 527.519,182.561 524.16,182.561L380.24,182.561C376.881,182.561 374.08,185.361 374.08,188.721L374.08,213.92C374.08,216.721 376.881,220.08 380.24,220.08Z" style="fill-rule:nonzero;fill:rgb(129, 3, 2);"/>
        <path d="M380.24,299.04L524.16,299.04C527.519,299.04 530.32,296.239 530.32,292.88L530.32,267.681C530.32,264.321 527.519,261.521 524.16,261.521L380.24,261.521C376.881,261.521 374.08,264.321 374.08,267.681L374.08,292.88C374.08,296.239 376.881,299.04 380.24,299.04Z" style="fill-rule:nonzero;fill:rgb(129, 3, 2);"/>
        <path d="M380.24,378L524.16,378C527.519,378 530.32,375.199 530.32,371.84L530.32,346.641C530.32,343.281 527.519,340.481 524.16,340.481L380.24,340.481C376.881,340.481 374.08,343.281 374.08,346.641L374.08,371.84C374.08,375.199 376.881,378 380.24,378Z" style="fill-rule:nonzero;fill:rgb(129, 3, 2);"/>
        <path d="M596.96,97.441L103.04,97.441C92.399,97.441 84.001,105.839 84.001,116.48L84.001,443.52C84.001,454.161 92.399,462.559 103.04,462.559L596.96,462.559C607.601,462.559 615.999,454.161 615.999,443.52L615.999,116.48C615.999,105.839 607.601,97.441 596.96,97.441ZM577.921,424.481L122.081,424.481L122.081,135.521L577.921,135.521L577.921,424.481Z" style="fill-rule:nonzero;fill:rgb(129, 3, 2);"/>
    </g>
</svg>
