<?xml version="1.0" encoding="UTF-8" standalone="no"?>
<!DOCTYPE svg PUBLIC "-//W3C//DTD SVG 1.1//EN" "http://www.w3.org/Graphics/SVG/1.1/DTD/svg11.dtd">
<svg width="100%" height="100%" viewBox="0 0 30 30" version="1.1" xmlns="http://www.w3.org/2000/svg" xmlns:xlink="http://www.w3.org/1999/xlink" xml:space="preserve" xmlns:serif="http://www.serif.com/" style="fill-rule:evenodd;clip-rule:evenodd;stroke-linejoin:round;stroke-miterlimit:2;">
    <g transform="matrix(0.057377,0,0,0.057377,5.36063,1)">
        <path d="M65.729,339.852C57.681,339.852 51.134,346.299 51.134,354.223C51.134,362.147 57.681,368.593 65.729,368.593C73.777,368.593 80.324,362.147 80.324,354.223C80.324,346.299 73.777,339.852 65.729,339.852Z" style="fill:url(#_Linear1);fill-rule:nonzero;"/>
        <ellipse cx="65.729" cy="418.519" rx="14.595" ry="14.37" style="fill:url(#_Linear2);"/>
        <path d="M270.919,138.37C270.919,82.332 224.75,36.741 168,36.741C111.25,36.741 65.081,82.332 65.081,138.37C65.081,194.409 111.25,240 168,240C224.75,240 270.919,194.409 270.919,138.37ZM80.324,138.37C80.324,90.582 119.655,51.704 168,51.704C216.345,51.704 255.676,90.582 255.676,138.37C255.676,186.158 216.345,225.037 168,225.037C119.655,225.037 80.324,186.158 80.324,138.37Z" style="fill:url(#_Linear3);fill-rule:nonzero;"/>
        <path d="M173.297,188.889C173.297,186.031 170.921,183.704 168,183.704C165.079,183.704 162.703,186.03 162.703,188.889C162.703,191.748 165.079,194.075 168,194.075C170.921,194.075 173.297,191.748 173.297,188.889Z" style="fill:url(#_Linear4);fill-rule:nonzero;"/>
        <ellipse cx="65.729" cy="289.926" rx="14.595" ry="14.37" style="fill:url(#_Linear5);"/>
        <path d="M247.676,138.37C247.676,94.993 211.934,59.704 168,59.704C124.066,59.704 88.324,94.993 88.324,138.37C88.324,181.747 124.066,217.037 168,217.037C211.934,217.037 247.676,181.747 247.676,138.37ZM144.108,106.223C144.108,108.432 142.317,110.223 140.108,110.223C137.899,110.223 136.108,108.432 136.108,106.223C136.108,88.824 150.415,74.667 168,74.667C185.585,74.667 199.892,88.823 199.892,106.223C199.892,122.283 187.704,135.577 172,137.531L172,161.334C172,163.543 170.209,165.334 168,165.334C165.791,165.334 164,163.543 164,161.334L164,133.778C164,131.569 165.791,129.778 168,129.778C181.174,129.778 191.892,119.212 191.892,106.223C191.892,93.234 181.174,82.667 168,82.667C154.826,82.667 144.108,93.234 144.108,106.223ZM154.703,188.889C154.703,181.619 160.668,175.704 168,175.704C175.332,175.704 181.297,181.619 181.297,188.889C181.297,196.16 175.332,202.075 168,202.075C160.668,202.075 154.703,196.159 154.703,188.889Z" style="fill:url(#_Linear6);fill-rule:nonzero;"/>
        <path d="M312.151,0L23.849,0C10.698,0 0,10.698 0,23.849L0,464.152C0,477.302 10.698,488 23.849,488L312.152,488C325.302,488 336.001,477.302 336.001,464.151L336.001,23.849C336,10.698 325.302,0 312.151,0ZM65.729,440.889C53.27,440.889 43.134,430.854 43.134,418.519C43.134,406.184 53.27,396.149 65.729,396.149C78.188,396.149 88.324,406.184 88.324,418.519C88.324,430.854 78.188,440.889 65.729,440.889ZM65.729,376.593C53.27,376.593 43.134,366.558 43.134,354.223C43.134,341.887 53.27,331.852 65.729,331.852C78.188,331.852 88.324,341.887 88.324,354.223C88.324,366.558 78.188,376.593 65.729,376.593ZM65.729,312.296C53.27,312.296 43.134,302.261 43.134,289.926C43.134,277.591 53.27,267.556 65.729,267.556C78.188,267.556 88.324,277.591 88.324,289.926C88.324,302.261 78.188,312.296 65.729,312.296ZM57.081,138.37C57.081,77.921 106.839,28.741 168,28.741C229.161,28.741 278.919,77.921 278.919,138.37C278.919,198.82 229.161,248 168,248C106.839,248 57.081,198.82 57.081,138.37ZM288.865,422.519L107.567,422.519C105.358,422.519 103.567,420.728 103.567,418.519C103.567,416.31 105.358,414.519 107.567,414.519L288.865,414.519C291.074,414.519 292.865,416.31 292.865,418.519C292.865,420.728 291.074,422.519 288.865,422.519ZM288.865,358.223L107.567,358.223C105.358,358.223 103.567,356.432 103.567,354.223C103.567,352.014 105.358,350.223 107.567,350.223L288.865,350.223C291.074,350.223 292.865,352.014 292.865,354.223C292.865,356.432 291.074,358.223 288.865,358.223ZM288.865,293.926L107.567,293.926C105.358,293.926 103.567,292.135 103.567,289.926C103.567,287.717 105.358,285.926 107.567,285.926L288.865,285.926C291.074,285.926 292.865,287.717 292.865,289.926C292.865,292.135 291.074,293.926 288.865,293.926Z" style="fill:url(#_Linear7);fill-rule:nonzero;"/>
    </g>
    <defs>
        <linearGradient id="_Linear1" x1="0" y1="0" x2="1" y2="0" gradientUnits="userSpaceOnUse" gradientTransform="matrix(336.001,0,0,336.001,0,226.571)"><stop offset="0" style="stop-color:rgb(202,32,18);stop-opacity:1"/><stop offset="1" style="stop-color:rgb(112,0,0);stop-opacity:1"/></linearGradient>
        <linearGradient id="_Linear2" x1="0" y1="0" x2="1" y2="0" gradientUnits="userSpaceOnUse" gradientTransform="matrix(336.001,0,0,336.001,0,226.571)"><stop offset="0" style="stop-color:rgb(202,32,18);stop-opacity:1"/><stop offset="1" style="stop-color:rgb(112,0,0);stop-opacity:1"/></linearGradient>
        <linearGradient id="_Linear3" x1="0" y1="0" x2="1" y2="0" gradientUnits="userSpaceOnUse" gradientTransform="matrix(336.001,0,0,336.001,0,226.571)"><stop offset="0" style="stop-color:rgb(202,32,18);stop-opacity:1"/><stop offset="1" style="stop-color:rgb(112,0,0);stop-opacity:1"/></linearGradient>
        <linearGradient id="_Linear4" x1="0" y1="0" x2="1" y2="0" gradientUnits="userSpaceOnUse" gradientTransform="matrix(336.001,0,0,336.001,0,226.571)"><stop offset="0" style="stop-color:rgb(202,32,18);stop-opacity:1"/><stop offset="1" style="stop-color:rgb(112,0,0);stop-opacity:1"/></linearGradient>
        <linearGradient id="_Linear5" x1="0" y1="0" x2="1" y2="0" gradientUnits="userSpaceOnUse" gradientTransform="matrix(336.001,0,0,336.001,0,226.571)"><stop offset="0" style="stop-color:rgb(202,32,18);stop-opacity:1"/><stop offset="1" style="stop-color:rgb(112,0,0);stop-opacity:1"/></linearGradient>
        <linearGradient id="_Linear6" x1="0" y1="0" x2="1" y2="0" gradientUnits="userSpaceOnUse" gradientTransform="matrix(336.001,0,0,336.001,0,226.571)"><stop offset="0" style="stop-color:rgb(202,32,18);stop-opacity:1"/><stop offset="1" style="stop-color:rgb(112,0,0);stop-opacity:1"/></linearGradient>
        <linearGradient id="_Linear7" x1="0" y1="0" x2="1" y2="0" gradientUnits="userSpaceOnUse" gradientTransform="matrix(336.001,0,0,336.001,0,226.571)"><stop offset="0" style="stop-color:rgb(202,32,18);stop-opacity:1"/><stop offset="1" style="stop-color:rgb(112,0,0);stop-opacity:1"/></linearGradient>
    </defs>
</svg>
