<?xml version="1.0" encoding="UTF-8" standalone="no"?>
<!DOCTYPE svg PUBLIC "-//W3C//DTD SVG 1.1//EN" "http://www.w3.org/Graphics/SVG/1.1/DTD/svg11.dtd">
<svg width="100%" height="100%" viewBox="0 0 30 30" version="1.1" xmlns="http://www.w3.org/2000/svg" xmlns:xlink="http://www.w3.org/1999/xlink" xml:space="preserve" xmlns:serif="http://www.serif.com/" style="fill-rule:evenodd;clip-rule:evenodd;stroke-linejoin:round;stroke-miterlimit:2;">
    <g transform="matrix(0.311111,0,0,0.311111,-0.555556,-0.664444)">
        <path d="M34.87,19.53C37.774,13.861 43.63,10.281 50,10.281C56.37,10.281 62.226,13.861 65.13,19.53L65.58,19.53C66.149,19.532 66.715,19.595 67.27,19.72C66.586,16.205 64.93,12.951 62.49,10.33C59.49,7.26 55.25,5.7 50,5.7C44.75,5.7 40.55,7.23 37.51,10.3C35.07,12.921 33.414,16.175 32.73,19.69C33.285,19.565 33.851,19.502 34.42,19.5C34.57,19.5 34.72,19.52 34.87,19.53Z" style="fill:url(#_Linear1);fill-rule:nonzero;"/>
        <path d="M34.18,33.82C32.501,29.717 32.501,25.113 34.18,21.01C30.762,21.145 28.023,23.994 28.023,27.415C28.023,30.836 30.762,33.685 34.18,33.82Z" style="fill:url(#_Linear2);fill-rule:nonzero;"/>
        <path d="M60.54,49.79C59.816,55.03 55.29,58.975 50,58.975C44.71,58.975 40.184,55.03 39.46,49.79C28.13,53.25 23.74,62.2 22.05,68.6L78,68.6C76.26,62.2 71.87,53.25 60.54,49.79Z" style="fill:url(#_Linear3);fill-rule:nonzero;"/>
        <path d="M67.08,27.42C67.072,29.425 66.707,31.413 66,33.29C66.001,33.307 66.001,33.323 66,33.34L65.82,33.82C69.245,33.697 71.997,30.847 72,27.42C72.003,26.987 71.959,26.554 71.87,26.13C71.788,25.715 71.664,25.31 71.5,24.92C71.42,24.729 71.33,24.542 71.23,24.36C70.148,22.365 68.088,21.085 65.82,21C66.65,23.039 67.078,25.219 67.08,27.42Z" style="fill:url(#_Linear4);fill-rule:nonzero;"/>
        <path d="M50,11.84C49.993,11.84 49.986,11.84 49.979,11.84C41.432,11.84 34.399,18.873 34.399,27.42C34.399,35.967 41.432,43 49.979,43C55.53,43 60.677,40.033 63.46,35.23C60.79,36.395 57.913,37.014 55,37.05C54.54,38.32 52.93,39.25 50.94,39.25C48.59,39.25 46.75,37.95 46.75,36.25C46.75,34.55 48.59,33.31 50.94,33.31C52.94,33.31 54.52,34.22 54.94,35.49C56.68,35.49 61.94,35.07 64.6,32.56C65.191,30.893 65.493,29.138 65.493,27.37C65.493,18.864 58.505,11.86 50,11.84Z" style="fill:url(#_Linear5);fill-rule:nonzero;"/>
        <ellipse cx="50.96" cy="36.3" rx="2.7" ry="1.44" style="fill:url(#_Linear6);"/>
        <path d="M50,57.48C54.626,57.485 58.564,53.976 59.09,49.38C56.116,48.648 53.062,48.292 50,48.32C46.938,48.292 43.884,48.648 40.91,49.38C41.436,53.976 45.374,57.485 50,57.48Z" style="fill:url(#_Linear7);fill-rule:nonzero;"/>
        <rect x="10" y="81.4" width="80" height="13.6" style="fill:url(#_Linear8);"/>
        <path d="M5,80L95,80L95,70L5,70L5,80Z" style="fill:url(#_Linear9);fill-rule:nonzero;"/>
    </g>
    <defs>
        <linearGradient id="_Linear1" x1="0" y1="0" x2="1" y2="0" gradientUnits="userSpaceOnUse" gradientTransform="matrix(90,0,0,90,5,53.5643)"><stop offset="0" style="stop-color:rgb(202,32,18);stop-opacity:1"/><stop offset="1" style="stop-color:rgb(112,0,0);stop-opacity:1"/></linearGradient>
        <linearGradient id="_Linear2" x1="0" y1="0" x2="1" y2="0" gradientUnits="userSpaceOnUse" gradientTransform="matrix(90,0,0,90,5,53.5643)"><stop offset="0" style="stop-color:rgb(202,32,18);stop-opacity:1"/><stop offset="1" style="stop-color:rgb(112,0,0);stop-opacity:1"/></linearGradient>
        <linearGradient id="_Linear3" x1="0" y1="0" x2="1" y2="0" gradientUnits="userSpaceOnUse" gradientTransform="matrix(90,0,0,90,5,53.5643)"><stop offset="0" style="stop-color:rgb(202,32,18);stop-opacity:1"/><stop offset="1" style="stop-color:rgb(112,0,0);stop-opacity:1"/></linearGradient>
        <linearGradient id="_Linear4" x1="0" y1="0" x2="1" y2="0" gradientUnits="userSpaceOnUse" gradientTransform="matrix(90,0,0,90,5,53.5643)"><stop offset="0" style="stop-color:rgb(202,32,18);stop-opacity:1"/><stop offset="1" style="stop-color:rgb(112,0,0);stop-opacity:1"/></linearGradient>
        <linearGradient id="_Linear5" x1="0" y1="0" x2="1" y2="0" gradientUnits="userSpaceOnUse" gradientTransform="matrix(90,0,0,90,5,53.5643)"><stop offset="0" style="stop-color:rgb(202,32,18);stop-opacity:1"/><stop offset="1" style="stop-color:rgb(112,0,0);stop-opacity:1"/></linearGradient>
        <linearGradient id="_Linear6" x1="0" y1="0" x2="1" y2="0" gradientUnits="userSpaceOnUse" gradientTransform="matrix(90,0,0,90,5,53.5643)"><stop offset="0" style="stop-color:rgb(202,32,18);stop-opacity:1"/><stop offset="1" style="stop-color:rgb(112,0,0);stop-opacity:1"/></linearGradient>
        <linearGradient id="_Linear7" x1="0" y1="0" x2="1" y2="0" gradientUnits="userSpaceOnUse" gradientTransform="matrix(90,0,0,90,5,53.5643)"><stop offset="0" style="stop-color:rgb(202,32,18);stop-opacity:1"/><stop offset="1" style="stop-color:rgb(112,0,0);stop-opacity:1"/></linearGradient>
        <linearGradient id="_Linear8" x1="0" y1="0" x2="1" y2="0" gradientUnits="userSpaceOnUse" gradientTransform="matrix(90,0,0,90,5,53.5643)"><stop offset="0" style="stop-color:rgb(202,32,18);stop-opacity:1"/><stop offset="1" style="stop-color:rgb(112,0,0);stop-opacity:1"/></linearGradient>
        <linearGradient id="_Linear9" x1="0" y1="0" x2="1" y2="0" gradientUnits="userSpaceOnUse" gradientTransform="matrix(90,0,0,90,5,53.5643)"><stop offset="0" style="stop-color:rgb(202,32,18);stop-opacity:1"/><stop offset="1" style="stop-color:rgb(112,0,0);stop-opacity:1"/></linearGradient>
    </defs>
</svg>
