<?xml version="1.0" encoding="UTF-8" standalone="no"?>
<!DOCTYPE svg PUBLIC "-//W3C//DTD SVG 1.1//EN" "http://www.w3.org/Graphics/SVG/1.1/DTD/svg11.dtd">
<svg width="100%" height="100%" viewBox="0 0 30 30" version="1.1" xmlns="http://www.w3.org/2000/svg" xmlns:xlink="http://www.w3.org/1999/xlink" xml:space="preserve" xmlns:serif="http://www.serif.com/" style="fill-rule:evenodd;clip-rule:evenodd;stroke-linejoin:round;stroke-miterlimit:2;">
    <g transform="matrix(0.0639306,0,0,0.0639306,-0.983811,-0.985045)">
        <path d="M227.9,183.7C207.7,203.9 174.9,203.9 154.7,183.7C134.5,163.5 134.5,130.7 154.7,110.5C174.9,90.3 207.7,90.3 227.9,110.5C248.2,130.7 248.2,163.5 227.9,183.7ZM191.3,186.9C213.3,186.9 231.1,169.1 231.1,147.1C231.1,125.1 213.3,107.3 191.3,107.3C169.3,107.3 151.5,125.1 151.5,147.1C151.5,169.1 169.3,186.9 191.3,186.9ZM420.5,275.5C376.2,231.3 304.5,231.3 260.2,275.5C215.9,319.8 215.9,391.5 260.2,435.8C304.4,480.1 376.2,480.1 420.5,435.8C464.8,391.5 464.8,319.8 420.5,275.5ZM283.9,243.8C296.7,237.3 310.7,233 325.5,231.2C347.8,177 335.2,114.7 293.9,73.5C237.3,16.9 145.4,16.9 88.8,73.5C36.7,125.6 31.9,208.5 77.8,266.2C127.3,200.5 221.7,190.4 283.9,243.8ZM220.8,318C229.6,289.9 248.2,265.8 272.8,250.1C214.9,203.6 129.6,214.9 85.8,275.4C119.9,311.7 170.8,328.4 220.8,318ZM363.2,316.1C359.9,314.2 356.4,312.7 352.6,311.7C349.9,311.1 347.9,308.7 347.9,305.8L347.9,294.9L345.2,285.4L335.5,285.4L332.9,294.9L332.9,305.8C332.9,308.5 331.1,310.9 328.5,311.6C321.2,313.6 313.6,317.8 308.4,323.2C306.5,325.2 303.5,325.7 301,324.3L291.6,318.9L282,316.4L277.2,324.8L284.1,331.9L293.4,337.3C295.8,338.6 297,341.4 296.3,344C294.3,351.5 294.2,359.9 296.3,367.4C297,370 296,372.8 293.6,374.2L284.2,379.6L277.3,386.7L282.1,395L291.7,392.5L301.1,387.1C303.4,385.8 306.3,386.1 308.3,388C313.5,393.2 321.1,397.9 328.3,399.7C331,400.3 333,402.7 333,405.6L333,416.5L335.6,426L345.3,426L348,416.5L348,405.6C348,402.9 349.8,400.5 352.5,399.8C359.8,397.8 367.4,393.6 372.6,388.2C374.4,386.2 377.5,385.7 380,387.1L389.3,392.5L398.9,395L403.7,386.7L396.8,379.6L387.5,374.2C385.1,372.9 383.9,370.1 384.6,367.4C386.6,359.7 386.6,351.6 384.6,343.9C383.9,341.3 385,338.6 387.4,337.2L396.7,331.8L403.6,324.7L398.8,316.4L389.2,318.9L379.9,324.3C377.6,325.6 374.6,325.3 372.7,323.4C369.8,320.5 366.6,318.1 363.2,316.1ZM359.9,301.4C366.4,303.8 372.4,307.2 377.6,311.7C379.2,310.8 384,307.8 385.4,307.4L400.2,303.6C403,302.9 405.8,304.3 407,306.7L411.7,314.8L416.2,322.6C417.6,325 417.1,327.9 415.3,329.7L404.6,340.6C403.6,341.7 398.5,344.4 397,345.2C398.2,352.1 398.2,358.8 397,365.7C398.8,366.8 403.5,369.2 404.7,370.5L415.2,381.3C417.2,383.4 417.4,386.5 415.9,388.8L406.7,404.7C405.3,407.1 402.6,408.2 400.1,407.5L385.3,403.7C383.9,403.4 379,400.3 377.5,399.4C372.3,403.9 366.2,407.3 359.8,409.7C359.8,412.1 360.1,417 359.5,418.9L355.5,433.2C354.8,435.8 352.4,437.6 349.7,437.6L331,437.6C328.1,437.6 325.7,435.6 325.1,432.8C324.4,429.9 320.9,418.8 320.9,416.9L320.9,409.6C314.4,407.3 308.4,403.8 303.2,399.3C301.6,400.2 296.8,403.2 295.4,403.6L280.6,407.4C277.7,408.1 274.9,406.7 273.7,404.1L264.6,388.3C263.2,385.9 263.7,383 265.5,381.2C267.3,379.3 276,370.1 277.5,369.3L283.8,365.6C282.6,358.7 282.6,352.1 283.8,345.1C282,344.1 277.3,341.6 276.1,340.3L265.6,329.5C263.6,327.5 263.4,324.3 264.9,322L269.4,314.2L274.1,306.1C275.5,303.7 278.2,302.7 280.8,303.3L295.6,307.1C297,307.5 301.9,310.5 303.4,311.4C308.6,306.9 314.7,303.5 321.1,301.1C321.1,298.7 320.8,293.7 321.4,291.9L325.4,277.6C326.1,275 328.5,273.2 331.2,273.2L349.9,273.2C352.8,273.2 355.2,275.2 355.8,278C356.5,281 360.1,292.1 360.1,293.9L360.1,301.4L359.9,301.4ZM352.7,343.3C341.7,332.3 322.9,340.1 322.9,355.6C322.9,371.1 341.7,378.9 352.7,368C359.5,361.2 359.5,350.1 352.7,343.3ZM340.4,326.2C356.6,326.2 369.9,339.4 369.9,355.7C369.9,372 356.7,385.2 340.4,385.2C324.1,385.2 310.9,372 310.9,355.7C310.9,339.4 324.1,326.2 340.4,326.2Z" style="fill:url(#_Linear1);fill-rule:nonzero;"/>
    </g>
    <defs>
        <linearGradient id="_Linear1" x1="0" y1="0" x2="1" y2="0" gradientUnits="userSpaceOnUse" gradientTransform="matrix(407.414,0,0,407.414,46.3114,203.112)"><stop offset="0" style="stop-color:rgb(202,32,18);stop-opacity:1"/><stop offset="1" style="stop-color:rgb(112,0,0);stop-opacity:1"/></linearGradient>
    </defs>
</svg>
