<?xml version="1.0" encoding="UTF-8" standalone="no"?>
<!DOCTYPE svg PUBLIC "-//W3C//DTD SVG 1.1//EN" "http://www.w3.org/Graphics/SVG/1.1/DTD/svg11.dtd">
<svg width="100%" height="100%" viewBox="0 0 30 30" version="1.1" xmlns="http://www.w3.org/2000/svg" xmlns:xlink="http://www.w3.org/1999/xlink" xml:space="preserve" xmlns:serif="http://www.serif.com/" style="fill-rule:evenodd;clip-rule:evenodd;stroke-linejoin:round;stroke-miterlimit:2;">
    <g transform="matrix(0.28451,0,0,0.28451,0.774499,0.760274)">
        <g>
            <g>
                <path d="M70.5,40.3C66.8,42.7 62.5,44.1 57.8,44.1C53.1,44.1 48.8,42.7 45.1,40.3C38.6,43.3 33.5,48.7 30.9,55.4L32,55.4C44.5,55.4 54.8,65.2 55.5,77.5L81.8,77.5C84.4,77.5 86.6,75.4 86.6,72.7L86.6,65.3C86.6,54.2 80,44.7 70.5,40.3Z" style="fill:url(#_Linear1);fill-rule:nonzero;"/>
                <path d="M57.8,39.2C67.9,39.2 76.1,31 76.1,20.9C76.1,10.8 67.9,2.6 57.8,2.6C47.7,2.6 39.5,10.8 39.5,20.9C39.5,31 47.7,39.2 57.8,39.2Z" style="fill:url(#_Linear2);fill-rule:nonzero;"/>
                <path d="M32,60.3C21.7,60.3 13.4,68.6 13.4,78.9C13.4,89.2 21.7,97.5 32,97.5C42.3,97.5 50.6,89.2 50.6,78.9C50.6,68.6 42.3,60.3 32,60.3ZM43.1,80L33.9,86.9C33,87.6 31.7,86.9 31.7,85.8L31.7,81.5L21.7,81.5C21,81.5 20.4,80.9 20.4,80.2L20.4,77.6C20.4,76.9 21,76.3 21.7,76.3L31.8,76.3L31.8,72C31.8,70.9 33.1,70.2 34,70.9L43.2,77.8C43.8,78.4 43.8,79.5 43.1,80Z" style="fill:url(#_Linear3);fill-rule:nonzero;"/>
            </g>
        </g>
    </g>
    <defs>
        <linearGradient id="_Linear1" x1="0" y1="0" x2="1" y2="0" gradientUnits="userSpaceOnUse" gradientTransform="matrix(73.2,0,0,73.2,13.4,50.05)"><stop offset="0" style="stop-color:rgb(202,32,18);stop-opacity:1"/><stop offset="1" style="stop-color:rgb(112,0,0);stop-opacity:1"/></linearGradient>
        <linearGradient id="_Linear2" x1="0" y1="0" x2="1" y2="0" gradientUnits="userSpaceOnUse" gradientTransform="matrix(73.2,0,0,73.2,13.4,50.05)"><stop offset="0" style="stop-color:rgb(202,32,18);stop-opacity:1"/><stop offset="1" style="stop-color:rgb(112,0,0);stop-opacity:1"/></linearGradient>
        <linearGradient id="_Linear3" x1="0" y1="0" x2="1" y2="0" gradientUnits="userSpaceOnUse" gradientTransform="matrix(73.2,0,0,73.2,13.4,50.05)"><stop offset="0" style="stop-color:rgb(202,32,18);stop-opacity:1"/><stop offset="1" style="stop-color:rgb(112,0,0);stop-opacity:1"/></linearGradient>
    </defs>
</svg>
