<?xml version="1.0" encoding="UTF-8" standalone="no"?>
<!DOCTYPE svg PUBLIC "-//W3C//DTD SVG 1.1//EN" "http://www.w3.org/Graphics/SVG/1.1/DTD/svg11.dtd">
<svg width="100%" height="100%" viewBox="0 0 30 30" version="1.1" xmlns="http://www.w3.org/2000/svg" xmlns:xlink="http://www.w3.org/1999/xlink" xml:space="preserve" xmlns:serif="http://www.serif.com/" style="fill-rule:evenodd;clip-rule:evenodd;stroke-linejoin:round;stroke-miterlimit:2;">
    <g transform="matrix(2,0,0,2,1.1588,1)">
        <path d="M6.921,7C10.4,7 13.287,9.538 13.829,12.864C13.927,13.462 13.44,14 12.834,14L1.008,14C0.402,14 -0.085,13.462 0.013,12.864C0.555,9.538 3.442,7 6.921,7ZM6.921,0C8.578,0 9.921,1.343 9.921,3C9.921,4.657 8.578,6 6.921,6C5.264,6 3.921,4.657 3.921,3C3.921,1.343 5.264,0 6.921,0Z" style="fill:url(#_Linear1);"/>
    </g>
    <defs>
        <linearGradient id="_Linear1" x1="0" y1="0" x2="1" y2="0" gradientUnits="userSpaceOnUse" gradientTransform="matrix(13.4206,0,0,13.4206,4.52014e-11,6.5)"><stop offset="0" style="stop-color:rgb(202,32,18);stop-opacity:1"/><stop offset="1" style="stop-color:rgb(112,0,0);stop-opacity:1"/></linearGradient>
    </defs>
</svg>
