<?xml version="1.0" encoding="UTF-8" standalone="no"?>
<!DOCTYPE svg PUBLIC "-//W3C//DTD SVG 1.1//EN" "http://www.w3.org/Graphics/SVG/1.1/DTD/svg11.dtd">
<svg width="100%" height="100%" viewBox="0 0 52 54" version="1.1" xmlns="http://www.w3.org/2000/svg" xmlns:xlink="http://www.w3.org/1999/xlink" xml:space="preserve" xmlns:serif="http://www.serif.com/" style="fill-rule:evenodd;clip-rule:evenodd;stroke-linejoin:round;stroke-miterlimit:1.41421;">
    <g transform="matrix(0.429996,0,0,0.429996,4.50043,5.50005)">
        <path d="M96.389,93.092L87.471,93.092C87.479,93.025 87.492,92.957 87.492,92.889L87.492,85.374C87.492,84.429 86.717,83.654 85.772,83.654L84.121,83.654L84.121,51.913L89.178,54.345C89.882,54.683 90.627,54.845 91.364,54.845C93.246,54.845 95.052,53.787 95.923,51.979C97.133,49.463 96.074,46.443 93.558,45.231L33.146,16.185C33.487,15.59 33.786,14.991 33.986,14.39C34.247,13.627 34.398,12.87 34.465,12.156C34.53,11.441 34.54,10.787 34.463,10.195C34.428,9.627 34.314,9.128 34.241,8.792C34.156,8.445 34.088,8.246 34.088,8.246C32.285,3.01 27.07,-0.508 21.319,0.061C21.319,0.061 21.11,0.082 20.76,0.148C20.423,0.222 19.922,0.329 19.392,0.533C18.821,0.708 18.23,0.991 17.609,1.348C16.988,1.708 16.363,2.161 15.778,2.717C15.186,3.272 14.656,3.937 14.162,4.691C13.645,5.425 13.141,6.227 12.64,7.069C11.644,8.761 10.739,10.664 9.966,12.653C9.173,14.631 8.454,16.654 7.707,18.503C6.966,20.357 6.256,22.075 5.728,23.6C5.206,25.127 4.813,26.427 4.581,27.364C4.344,28.3 4.244,28.857 4.244,28.857C3.939,30.594 4.29,32.466 5.374,34.029C6.425,35.544 7.973,36.508 9.647,36.864L9.647,93.091L3.613,93.091C2.668,93.091 1.893,93.864 1.893,94.811L1.893,98.279C1.893,99.226 2.667,100 3.613,100L96.388,100C97.331,100 98.106,99.227 98.106,98.279L98.106,94.811C98.106,93.865 97.332,93.092 96.389,93.092ZM74.045,83.654C73.101,83.654 72.325,84.428 72.325,85.374L72.325,85.621L57.573,39.149L75.527,47.781L75.527,83.655L74.045,83.655L74.045,83.654ZM65.072,76.138L54.199,70.187L61.853,65.996L65.072,76.138ZM60.519,61.786L53.881,57.101L58.079,54.104L60.519,61.786ZM55.102,44.726L55.993,47.534L53.795,45.782L55.102,44.726ZM52.174,44.493L50.548,43.196L53.781,43.196L52.174,44.493ZM57.048,50.959L47.373,50.959L52.181,47.082L57.048,50.959ZM56.173,52.98L52.13,55.864L48.042,52.98L56.173,52.98ZM52.137,58.344L59.368,63.451L44.976,63.451L52.137,58.344ZM58.601,65.472L52.096,69.034L45.59,65.472L58.601,65.472ZM64.132,77.926L40.059,77.926L52.096,71.338L64.132,77.926ZM63.202,79.948L51.923,84.83L40.891,79.948L63.202,79.948ZM66.526,80.713L70.431,93.018L54.441,85.944L66.526,80.713ZM52.567,36.739L53.972,41.174L50.407,41.174L51.914,36.427L52.567,36.739ZM49.268,44.76L50.561,45.793L48.382,47.547L49.268,44.76ZM46.271,54.204L50.385,57.107L43.873,61.751L46.271,54.204ZM42.498,66.085L49.989,70.187L39.347,76.013L42.498,66.085ZM37.826,80.804L49.397,85.923L34.1,92.544L37.826,80.804ZM51.914,87.037L65.598,93.092L37.926,93.092L51.914,87.037ZM81.088,83.654L78.562,83.654L78.562,49.239L81.088,50.454L81.088,83.654ZM11.667,36.994C12.843,36.897 14.008,36.504 15.048,35.786C15.048,35.786 15.515,35.463 16.263,34.856C17.019,34.254 18.036,33.353 19.204,32.242C20.371,31.125 21.635,29.761 23.011,28.314C24.215,27.039 25.547,25.722 26.848,24.375L48.23,34.658L29.683,93.092L11.667,93.092L11.667,36.994Z" style="fill:url(#_Linear1);fill-rule:nonzero;"/>
    </g>
    <defs>
        <linearGradient id="_Linear1" x1="0" y1="0" x2="1" y2="0" gradientUnits="userSpaceOnUse" gradientTransform="matrix(116.28,-72.0938,72.0938,116.28,18.561,85.1072)"><stop offset="0" style="stop-color:rgb(165,12,12);stop-opacity:1"/><stop offset="1" style="stop-color:rgb(91,0,0);stop-opacity:1"/></linearGradient>
    </defs>
</svg>
